<?xml version="1.0" standalone="no"?><!DOCTYPE svg PUBLIC "-//W3C//DTD SVG 1.1//EN" "http://www.w3.org/Graphics/SVG/1.1/DTD/svg11.dtd"><svg class="icon" width="200px" height="200.00px" viewBox="0 0 1024 1024" version="1.1" xmlns="http://www.w3.org/2000/svg"><path d="M814.6 200.6H245.5c-9.6 0-17.4 8.1-17.4 18v522.8c0 9.9 7.8 18 17.4 18h569.2c9.6 0 17.4-8.1 17.4-18V218.6c-0.1-10-7.9-18-17.5-18z" fill="#FFD500" /><path d="M360.9 200.6h141v558.9h-141z" fill="#FFD500" /><path d="M502.6 200.6h141v558.9h-141z" fill="#7BD721" /><path d="M784.9 759.5h-33.1V200.6h33.1c9.9 0 18 8.1 18 18V741.5c0 9.9-8.1 18-18 18z" fill="#FFB600" /><path d="M383 500.6h-46c-17.7 0-32-14.3-32-32v-268h110v268c0 17.6-14.3 32-32 32zM525.5 500.6h-46c-17.7 0-32-14.3-32-32v-268h110v268c0 17.6-14.3 32-32 32zM668 500.6h-46c-17.7 0-32-14.3-32-32v-268h110v268c0 17.6-14.3 32-32 32z" fill="#FFFFFF" /><path d="M663.2 200.6v268c0 17.7-14.3 32-32 32H660c17.7 0 32-14.3 32-32v-268h-28.8zM520.7 200.6v268c0 17.7-14.3 32-32 32h28.8c17.7 0 32-14.3 32-32v-268h-28.8zM378.2 200.6v268c0 17.7-14.3 32-32 32H375c17.7 0 32-14.3 32-32v-268h-28.8z" fill="#EEEAF4" /><path d="M586.6 830.9h-384c-4.4 0-8-3.6-8-8s3.6-8 8-8h384c4.4 0 8 3.6 8 8s-3.6 8-8 8z" fill="#5C3290" /><path d="M196.1 830.9h-28c-4.4 0-8-3.6-8-8s3.6-8 8-8h28c4.4 0 8 3.6 8 8s-3.6 8-8 8zM886.4 830.9h-98c-4.4 0-8-3.6-8-8s3.6-8 8-8h98c4.4 0 8 3.6 8 8s-3.6 8-8 8zM711.7 830.9h-44c-4.4 0-8-3.6-8-8s3.6-8 8-8h44c4.4 0 8 3.6 8 8s-3.6 8-8 8zM140.4 830.9h-4c-4.4 0-8-3.6-8-8s3.6-8 8-8h4c4.4 0 8 3.6 8 8s-3.6 8-8 8zM751.2 830.9h-4c-4.4 0-8-3.6-8-8s3.6-8 8-8h4c4.4 0 8 3.6 8 8s-3.5 8-8 8z" fill="#5C3290" /><path d="M577.4 879.5h-184c-4.4 0-8-3.6-8-8s3.6-8 8-8h184c4.4 0 8 3.6 8 8s-3.6 8-8 8zM366.7 879.5h-28c-4.4 0-8-3.6-8-8s3.6-8 8-8h28c4.4 0 8 3.6 8 8s-3.6 8-8 8zM715.8 879.5h-98c-4.4 0-8-3.6-8-8s3.6-8 8-8h98c4.4 0 8 3.6 8 8s-3.6 8-8 8zM311 879.5h-4c-4.4 0-8-3.6-8-8s3.6-8 8-8h4c4.4 0 8 3.6 8 8s-3.6 8-8 8z" fill="#AD98C7" /><path d="M479 928.1h-28c-4.4 0-8-3.6-8-8s3.6-8 8-8h28c4.4 0 8 3.6 8 8s-3.6 8-8 8zM603.5 928.1h-98c-4.4 0-8-3.6-8-8s3.6-8 8-8h98c4.4 0 8 3.6 8 8s-3.6 8-8 8zM423.2 928.1h-4c-4.4 0-8-3.6-8-8s3.6-8 8-8h4c4.4 0 8 3.6 8 8s-3.5 8-8 8z" fill="#EEEAF4" /><path d="M134.1 134.9c-3.7 1.2-7 3.2-9.8 5.6 3.7 1.1 6.8 4 8.1 7.9 2.1 6.4-1.4 13.4-7.8 15.5-3.3 1.1-6.7 0.7-9.6-0.8 0.1 2.3 0.6 4.7 1.3 7 4.8 14.6 20.6 22.6 35.2 17.8s22.6-20.6 17.8-35.2c-4.8-14.6-20.6-22.6-35.2-17.8z" fill="#B6EFFF" /><path d="M149.7 154.1c1 2.8 1.3 5.9 0.9 9.2-1.2 9-8.7 16.2-17.8 17.1-12.6 1.2-23.2-9.3-21.9-21.9 0.9-9 7.9-16.4 16.8-17.8 3.2-0.5 6.4-0.2 9.2 0.7 2.1 0.7 4.3 0.3 5.9-1.2l0.2-0.2c3.3-3 2.2-8.5-2.1-9.9-3.9-1.3-8-1.9-12.4-1.6-15.9 1.1-28.7 14-29.7 29.9-1.3 20.3 16.3 36.8 36.9 33.7 13.5-2 24.4-12.7 26.6-26.2 0.9-5.4 0.4-10.7-1.2-15.4-1.4-4.2-6.5-5.6-9.8-2.6-1.7 1.5-2.4 3.9-1.6 6.2z" fill="#5C3290" /><path d="M315.6 105.2m-8 0a8 8 0 1 0 16 0 8 8 0 1 0-16 0Z" fill="#5C3390" /><path d="M788.6 142.6m-10 0a10 10 0 1 0 20 0 10 10 0 1 0-20 0Z" fill="#FFA819" /><path d="M427.8 124.9h-0.1c2.4 1.4 4.1 3.9 4.5 6.9 0.7 5.2-3 10.1-8.2 10.8-4.2 0.6-8.1-1.7-9.9-5.3-0.5 1.9-0.6 4-0.3 6.1 1.2 9 9.5 15.2 18.4 14 9-1.2 15.2-9.5 14-18.4-1.2-9-9.5-15.3-18.4-14.1z" fill="#FFE404" /><path d="M883.9 301.5c-12.2 0-22 9.8-22 22s9.8 22 22 22 22-9.8 22-22-9.9-22-22-22z m0 30c-4.4 0-8-3.6-8-8s3.6-8 8-8 8 3.6 8 8-3.6 8-8 8z" fill="#5C3290" /><path d="M154.8 419.1c-9.9 0-18 8.1-18 18s8.1 18 18 18 18-8.1 18-18-8.1-18-18-18z m0 24.5c-3.6 0-6.5-2.9-6.5-6.5s2.9-6.5 6.5-6.5 6.5 2.9 6.5 6.5-2.9 6.5-6.5 6.5z" fill="#EEEAF4" /><path d="M909.7 172.6h14c2.8 0 5 2.2 5 5s-2.2 5-5 5h-14c-2.8 0-5-2.2-5-5s2.2-5 5-5zM927.3 199v-14c0-2.8 2.2-5 5-5s5 2.2 5 5v14c0 2.8-2.2 5-5 5-2.7 0-5-2.2-5-5zM953.7 181.4h-14c-2.8 0-5-2.2-5-5s2.2-5 5-5h14c2.8 0 5 2.2 5 5 0 2.7-2.2 5-5 5zM936.1 155v14c0 2.8-2.2 5-5 5s-5-2.2-5-5v-14c0-2.8 2.2-5 5-5 2.7 0 5 2.2 5 5z" fill="#AD98C7" /><path d="M77.2 336.6m-4.8 0a4.8 4.8 0 1 0 9.6 0 4.8 4.8 0 1 0-9.6 0Z" fill="#FCDDCC" /><path d="M113.4 334.1m-4.8 0a4.8 4.8 0 1 0 9.6 0 4.8 4.8 0 1 0-9.6 0Z" fill="#FCDDCC" /><path d="M93.7 320.2m-4.8 0a4.8 4.8 0 1 0 9.6 0 4.8 4.8 0 1 0-9.6 0Z" fill="#FCDDCC" /><path d="M95.3 353.2m-4.8 0a4.8 4.8 0 1 0 9.6 0 4.8 4.8 0 1 0-9.6 0Z" fill="#FCDDCC" /><path d="M73.2 310.1L88 324.8c1.6 1.6 1.6 4.1 0 5.7-1.6 1.6-4.1 1.6-5.7 0l-14.8-14.8c-1.6-1.6-1.6-4.1 0-5.7 1.6-1.5 4.1-1.5 5.7 0.1zM67.6 357.5l14.8-14.8c1.6-1.6 4.1-1.6 5.7 0 1.6 1.6 1.6 4.1 0 5.7l-14.8 14.8c-1.6 1.6-4.1 1.6-5.7 0-1.6-1.6-1.6-4.1 0-5.7zM116.7 362.3l-14.8-14.8c-1.6-1.6-1.6-4.1 0-5.7 1.6-1.6 4.1-1.6 5.7 0l14.8 14.8c1.6 1.6 1.6 4.1 0 5.7-1.6 1.6-4.2 1.6-5.7 0zM120.7 314.1l-14.8 14.8c-1.6 1.6-4.1 1.6-5.7 0-1.6-1.6-1.6-4.1 0-5.7l14.8-14.8c1.6-1.6 4.1-1.6 5.7 0 1.5 1.6 1.5 4.1 0 5.7z" fill="#FCDDCC" /><path d="M634.6 127.9l-7.1-7.1c-1.6-1.6-1.6-4.1 0-5.7 1.6-1.6 4.1-1.6 5.7 0l7.1 7.1c1.6 1.6 1.6 4.1 0 5.7-1.6 1.5-4.1 1.5-5.7 0zM633.4 140h-10c-2.2 0-4-1.8-4-4s1.8-4 4-4h10c2.2 0 4 1.8 4 4s-1.8 4-4 4zM641.1 149.4l-7.1 7.1c-1.6 1.6-4.1 1.6-5.7 0-1.6-1.6-1.6-4.1 0-5.7l7.1-7.1c1.6-1.6 4.1-1.6 5.7 0 1.5 1.6 1.5 4.2 0 5.7zM653.2 150.7v10c0 2.2-1.8 4-4 4s-4-1.8-4-4v-10c0-2.2 1.8-4 4-4s4 1.8 4 4zM662.6 143l7.1 7.1c1.6 1.6 1.6 4.1 0 5.7-1.6 1.6-4.1 1.6-5.7 0l-7.1-7.1c-1.6-1.6-1.6-4.1 0-5.7 1.6-1.6 4.2-1.6 5.7 0zM663.9 130.9h10c2.2 0 4 1.8 4 4s-1.8 4-4 4h-10c-2.2 0-4-1.8-4-4s1.8-4 4-4zM656.2 121.4l7.1-7.1c1.6-1.6 4.1-1.6 5.7 0 1.6 1.6 1.6 4.1 0 5.7l-7.1 7.1c-1.6 1.6-4.1 1.6-5.7 0-1.6-1.6-1.6-4.1 0-5.7zM644.1 120.2v-10c0-2.2 1.8-4 4-4s4 1.8 4 4v10c0 2.2-1.8 4-4 4s-4-1.8-4-4z" fill="#7BD721" /><path d="M143 264.7m-8 0a8 8 0 1 0 16 0 8 8 0 1 0-16 0Z" fill="#4CC6F4" /><path d="M352 499.5h16v260h-16zM494.5 499.5h16v260h-16zM637 499.5h16v260h-16z" fill="#5C3290" /></svg>