<?xml version="1.0" standalone="no"?><!DOCTYPE svg PUBLIC "-//W3C//DTD SVG 1.1//EN" "http://www.w3.org/Graphics/SVG/1.1/DTD/svg11.dtd"><svg class="icon" width="200px" height="200.00px" viewBox="0 0 1024 1024" version="1.1" xmlns="http://www.w3.org/2000/svg"><path d="M850.9 886H171.8c-37.6 0-68.4-30.8-68.4-68.4V222.2c0-37.6 30.8-68.4 68.4-68.4h679.1c37.6 0 68.4 30.8 68.4 68.4v595.3c0 37.7-30.8 68.5-68.4 68.5z" fill="#43D8D6" /><path d="M314.6 552.4H211.4c-1.8 0-3.3-1.5-3.3-3.3V153.8h109.8v395.3c0 1.8-1.5 3.3-3.3 3.3zM480.9 552.4H377.7c-1.8 0-3.3-1.5-3.3-3.3V153.8h109.8v395.3c0 1.8-1.5 3.3-3.3 3.3zM806 552.4H702.8c-1.8 0-3.3-1.5-3.3-3.3V153.8h109.8v395.3c0 1.8-1.5 3.3-3.3 3.3z" fill="#FDD65D" /><path d="M864.3 140.1H158.4c-37.9 0-68.8 30.8-68.8 68.8V831c0 37.9 30.8 68.8 68.8 68.8h706c37.9 0 68.8-30.8 68.8-68.8V208.8c-0.1-37.9-31-68.7-68.9-68.7z m-68.7 27.5v366.5c0 2.5-2.1 4.6-4.6 4.6h-73.2c-2.5 0-4.6-2.1-4.6-4.6V167.6h82.4z m-77.8 398.6h22.8v306H612.3V167.6h73.4v366.5c0.1 17.7 14.5 32.1 32.1 32.1z m-133-398.6v704.6H443v-306h22.8c17.7 0 32.1-14.4 32.1-32.1V167.6h86.9z m-114.4 0v366.5c0 2.5-2.1 4.6-4.6 4.6h-73.2c-2.5 0-4.6-2.1-4.6-4.6V167.6h82.4z m-109.8 0v366.5c0 17.7 14.4 32.1 32.1 32.1h22.8v306H276.8v-306h22.8c17.7 0 32.1-14.4 32.1-32.1V167.6h28.9z m-56.4 0v366.5c0 2.5-2.1 4.6-4.6 4.6h-73.2c-2.5 0-4.6-2.1-4.6-4.6V167.6h82.4zM117.1 831V208.8c0-22.7 18.5-41.3 41.3-41.3h36V534c0 17.7 14.4 32.1 32.1 32.1h22.8v306h-90.9c-22.8 0.1-41.3-18.4-41.3-41.1z m788.5 0c0 22.7-18.5 41.3-41.3 41.3h-96.1v-306H791c17.7 0 32.1-14.4 32.1-32.1V167.6h41.2c22.7 0 41.3 18.5 41.3 41.3V831z" fill="#2D415C" /></svg>